<svg width="1280" height="720" viewBox="0 0 1280 720" fill="none" xmlns="http://www.w3.org/2000/svg">
<g clip-path="url(#clip0_1016_72)">
<rect width="1280" height="720" fill="#F3EEFF"/>
<rect width="1280" height="79" fill="white"/>
<rect width="99" height="720" fill="url(#paint0_linear_1016_72)"/>
<path d="M0 0H99V720H0V241C0 219.461 17.4609 202 39 202H45.5C63.4493 202 78 187.449 78 169.5C78 151.551 63.4493 137 45.5 137H39C17.4609 137 0 119.539 0 98V0Z" fill="white"/>
<path d="M41.7568 221.284V227.881" stroke="#9315CD" stroke-width="1.72969" stroke-linecap="round" stroke-linejoin="round"/>
<path d="M46.2431 218.128V227.882" stroke="#9315CD" stroke-width="1.72969" stroke-linecap="round" stroke-linejoin="round"/>
<path d="M50.6591 224.77V227.881" stroke="#9315CD" stroke-width="1.72969" stroke-linecap="round" stroke-linejoin="round"/>
<path fill-rule="evenodd" clip-rule="evenodd" d="M50.7149 213.396H41.7025C38.561 213.396 36.5918 215.62 36.5918 218.768V227.259C36.5918 230.407 38.5518 232.63 41.7025 232.63H50.7149C53.8656 232.63 55.8256 230.407 55.8256 227.259V218.768C55.8256 215.62 53.8656 213.396 50.7149 213.396Z" stroke="#9315CD" stroke-width="1.72969" stroke-linecap="round" stroke-linejoin="round"/>
<path d="M49.8367 273.506V270.59C49.8367 268.586 48.2125 266.962 46.2093 266.962C44.2051 266.953 42.5731 268.57 42.5645 270.574V270.59V273.506" stroke="#9315CD" stroke-width="1.72969" stroke-linecap="round" stroke-linejoin="round"/>
<path fill-rule="evenodd" clip-rule="evenodd" d="M50.7685 284.753H41.6474C39.3854 284.753 37.5527 282.921 37.5527 280.661V275.357C37.5527 273.097 39.3854 271.265 41.6474 271.265H50.7685C53.0305 271.265 54.8631 273.097 54.8631 275.357V280.661C54.8631 282.921 53.0305 284.753 50.7685 284.753Z" stroke="#9315CD" stroke-width="1.72969" stroke-linecap="round" stroke-linejoin="round"/>
<path fill-rule="evenodd" clip-rule="evenodd" d="M48.841 320.299H42.4429C40.4426 320.291 38.8029 321.886 38.7558 323.885V334.188C38.7115 336.22 40.3224 337.904 42.3544 337.949C42.3842 337.949 42.4131 337.95 42.4429 337.949H50.1258C52.1396 337.867 53.7264 336.203 53.712 334.188V325.373L48.841 320.299Z" stroke="#9315CD" stroke-width="1.72969" stroke-linecap="round" stroke-linejoin="round"/>
<path d="M48.5869 320.287V323.085C48.5869 324.45 49.6909 325.557 51.0565 325.561H53.706" stroke="#9315CD" stroke-width="1.72969" stroke-linecap="round" stroke-linejoin="round"/>
<path d="M48.4089 332.413H43.2158" stroke="#9315CD" stroke-width="1.72969" stroke-linecap="round" stroke-linejoin="round"/>
<path d="M46.4393 328.804H43.2119" stroke="#9315CD" stroke-width="1.72969" stroke-linecap="round" stroke-linejoin="round"/>
<path fill-rule="evenodd" clip-rule="evenodd" d="M43.8894 385.353C47.4371 385.353 50.4693 385.89 50.4693 388.038C50.4693 390.185 47.4573 390.738 43.8894 390.738C40.3408 390.738 37.3096 390.205 37.3096 388.057C37.3096 385.908 40.3206 385.353 43.8894 385.353Z" stroke="#9315CD" stroke-width="1.72969" stroke-linecap="round" stroke-linejoin="round"/>
<path fill-rule="evenodd" clip-rule="evenodd" d="M43.8918 382.288C41.5626 382.288 39.6738 380.4 39.6738 378.071C39.6738 375.741 41.5626 373.854 43.8918 373.854C46.22 373.854 48.1088 375.741 48.1088 378.071C48.1175 380.391 46.2422 382.279 43.9216 382.288H43.8918Z" stroke="#9315CD" stroke-width="1.72969" stroke-linecap="round" stroke-linejoin="round"/>
<path d="M50.5176 381.194C52.0572 380.978 53.243 379.656 53.2459 378.057C53.2459 376.481 52.0967 375.173 50.5897 374.926" stroke="#9315CD" stroke-width="1.72969" stroke-linecap="round" stroke-linejoin="round"/>
<path d="M52.5498 384.896C54.0414 385.118 55.0829 385.641 55.0829 386.718C55.0829 387.459 54.5924 387.94 53.8 388.241" stroke="#9315CD" stroke-width="1.72969" stroke-linecap="round" stroke-linejoin="round"/>
<circle cx="44.5" cy="169.5" r="26.5" fill="white"/>
<path fill-rule="evenodd" clip-rule="evenodd" d="M55.1018 169.927C55.1018 174.84 51.1194 178.822 46.2062 178.822C41.2929 178.822 37.3105 174.84 37.3105 169.927C37.3105 165.014 41.2929 161.031 46.2062 161.031C51.1194 161.031 55.1018 165.014 55.1018 169.927Z" stroke="#9215CD" stroke-width="1.72969" stroke-linecap="round" stroke-linejoin="round"/>
<path d="M49.5055 172.757L45.8799 170.594V165.933" stroke="#9215CD" stroke-width="1.72969" stroke-linecap="round" stroke-linejoin="round"/>
<g filter="url(#filter0_d_1016_72)">
<rect x="128" y="262" width="553" height="204" rx="12" fill="#FCFBFC"/>
</g>
<g filter="url(#filter1_d_1016_72)">
<rect x="128" y="486" width="553" height="204" rx="12" fill="#FCFBFC"/>
</g>
<g filter="url(#filter2_d_1016_72)">
<rect x="700" y="262" width="266" height="204" rx="12" fill="#FCFBFC"/>
</g>
<g filter="url(#filter3_d_1016_72)">
<rect x="700" y="486" width="266" height="204" rx="12" fill="#FCFBFC"/>
</g>
<g filter="url(#filter4_d_1016_72)">
<rect x="986" y="262" width="266" height="204" rx="12" fill="#FCFBFC"/>
</g>
<g filter="url(#filter5_d_1016_72)">
<rect x="986" y="486" width="266" height="204" rx="12" fill="#FCFBFC"/>
</g>
<g filter="url(#filter6_d_1016_72)">
<rect x="128" y="110" width="266" height="133" rx="12" fill="#FCFBFC"/>
</g>
<g filter="url(#filter7_d_1016_72)">
<rect x="414" y="110" width="267" height="133" rx="12" fill="#FCFBFC"/>
</g>
<g filter="url(#filter8_d_1016_72)">
<rect x="700" y="110" width="266" height="133" rx="12" fill="#FCFBFC"/>
</g>
<g filter="url(#filter9_d_1016_72)">
<rect x="986" y="110" width="266" height="133" rx="12" fill="#FCFBFC"/>
</g>
<path d="M414 134C417.314 134 420 136.686 420 140V213C420 216.314 417.314 219 414 219V134Z" fill="#6B23DA"/>
<path d="M128 134C131.314 134 134 136.686 134 140V213C134 216.314 131.314 219 128 219V134Z" fill="#6B23DA"/>
<path d="M699 134C702.866 134 706 137.134 706 141V212C706 215.866 702.866 219 699 219V134Z" fill="#6B23DA"/>
<path d="M985 134C988.866 134 992 137.134 992 141V212C992 215.866 988.866 219 985 219V134Z" fill="#6B23DA"/>
<rect x="347.976" y="159.383" width="34.733" height="34.8581" rx="8" fill="#E4DFFF"/>
<g clip-path="url(#clip1_1016_72)">
<path d="M365.292 167.027V185.667" stroke="#8B1DBF" stroke-width="2" stroke-linecap="round" stroke-linejoin="round"/>
<path d="M369.246 171.309H362.915C362.131 171.309 361.379 171.621 360.825 172.177C360.271 172.733 359.96 173.487 359.96 174.274C359.96 175.06 360.271 175.815 360.825 176.371C361.379 176.927 362.131 177.239 362.915 177.239H367.136C367.919 177.239 368.671 177.552 369.225 178.108C369.779 178.664 370.09 179.418 370.09 180.205C370.09 180.991 369.779 181.745 369.225 182.301C368.671 182.858 367.919 183.17 367.136 183.17H359.96" stroke="#8B1DBF" stroke-width="2" stroke-linecap="round" stroke-linejoin="round"/>
</g>
<rect x="1205.69" y="159.383" width="34.733" height="34.8581" rx="8" fill="#E4DFFF"/>
<path d="M1227.69 169.357C1227.69 169.126 1227.78 168.904 1227.94 168.741C1228.1 168.577 1228.32 168.485 1228.56 168.485H1231.45C1231.68 168.485 1231.9 168.577 1232.06 168.741C1232.23 168.904 1232.32 169.126 1232.32 169.357V172.262C1232.32 172.493 1232.23 172.714 1232.06 172.878C1231.9 173.041 1231.68 173.133 1231.45 173.133C1231.22 173.133 1231 173.041 1230.84 172.878C1230.67 172.714 1230.58 172.493 1230.58 172.262V171.46L1225.41 176.654C1225.24 176.817 1225.02 176.909 1224.79 176.909C1224.56 176.909 1224.34 176.817 1224.18 176.654L1221.32 173.784L1216.43 178.687C1216.35 178.773 1216.26 178.841 1216.15 178.889C1216.04 178.937 1215.93 178.962 1215.81 178.964C1215.7 178.966 1215.58 178.945 1215.47 178.901C1215.36 178.857 1215.27 178.792 1215.18 178.709C1215.1 178.627 1215.04 178.528 1214.99 178.419C1214.95 178.311 1214.93 178.195 1214.93 178.078C1214.93 177.961 1214.96 177.845 1215 177.738C1215.05 177.631 1215.12 177.535 1215.21 177.456L1220.71 171.936C1220.87 171.773 1221.09 171.681 1221.32 171.681C1221.55 171.681 1221.77 171.773 1221.93 171.936L1224.79 174.806L1229.35 170.228H1228.56C1228.32 170.228 1228.1 170.136 1227.94 169.973C1227.78 169.81 1227.69 169.588 1227.69 169.357ZM1215.82 182.429C1216.05 182.429 1216.27 182.52 1216.43 182.684C1216.6 182.847 1216.69 183.069 1216.69 183.3V186.205C1216.69 186.436 1216.6 186.658 1216.43 186.821C1216.27 186.985 1216.05 187.076 1215.82 187.076C1215.59 187.076 1215.37 186.985 1215.21 186.821C1215.04 186.658 1214.95 186.436 1214.95 186.205V183.3C1214.95 183.069 1215.04 182.847 1215.21 182.684C1215.37 182.52 1215.59 182.429 1215.82 182.429ZM1221.32 179.814C1221.32 179.583 1221.23 179.361 1221.06 179.198C1220.9 179.035 1220.68 178.943 1220.45 178.943C1220.22 178.943 1220 179.035 1219.84 179.198C1219.67 179.361 1219.58 179.583 1219.58 179.814V186.205C1219.58 186.436 1219.67 186.658 1219.84 186.821C1220 186.985 1220.22 187.076 1220.45 187.076C1220.68 187.076 1220.9 186.985 1221.06 186.821C1221.23 186.658 1221.32 186.436 1221.32 186.205V179.814ZM1225.08 181.267C1225.31 181.267 1225.53 181.358 1225.7 181.522C1225.86 181.685 1225.95 181.907 1225.95 182.138V186.205C1225.95 186.436 1225.86 186.658 1225.7 186.821C1225.53 186.985 1225.31 187.076 1225.08 187.076C1224.85 187.076 1224.63 186.985 1224.47 186.821C1224.3 186.658 1224.21 186.436 1224.21 186.205V182.138C1224.21 181.907 1224.3 181.685 1224.47 181.522C1224.63 181.358 1224.85 181.267 1225.08 181.267ZM1230.58 177.49C1230.58 177.259 1230.49 177.038 1230.33 176.874C1230.16 176.711 1229.94 176.619 1229.71 176.619C1229.48 176.619 1229.26 176.711 1229.1 176.874C1228.94 177.038 1228.84 177.259 1228.84 177.49V186.205C1228.84 186.436 1228.94 186.658 1229.1 186.821C1229.26 186.985 1229.48 187.076 1229.71 187.076C1229.94 187.076 1230.16 186.985 1230.33 186.821C1230.49 186.658 1230.58 186.436 1230.58 186.205V177.49Z" fill="#8B1DBF"/>
<rect x="634.523" y="159.383" width="34.733" height="34.8581" rx="8" fill="#E4DFFF"/>
<path d="M661.461 182.99C661.363 183.226 661.176 183.414 660.94 183.512C660.824 183.562 660.7 183.588 660.574 183.59H655.751C655.495 183.59 655.25 183.488 655.069 183.306C654.888 183.125 654.787 182.879 654.787 182.622C654.787 182.365 654.888 182.119 655.069 181.938C655.25 181.756 655.495 181.654 655.751 181.654H658.249L652.858 176.244L649.684 179.438C649.595 179.529 649.488 179.601 649.37 179.65C649.253 179.699 649.127 179.724 648.999 179.724C648.872 179.724 648.746 179.699 648.629 179.65C648.511 179.601 648.404 179.529 648.315 179.438L642.527 173.631C642.437 173.541 642.365 173.434 642.316 173.316C642.267 173.198 642.242 173.072 642.242 172.944C642.242 172.816 642.267 172.69 642.316 172.572C642.365 172.454 642.437 172.347 642.527 172.257C642.617 172.166 642.724 172.094 642.841 172.045C642.959 171.996 643.085 171.97 643.212 171.97C643.34 171.97 643.466 171.996 643.583 172.045C643.701 172.094 643.807 172.166 643.897 172.257L648.999 177.386L652.173 174.192C652.262 174.102 652.369 174.03 652.487 173.981C652.604 173.931 652.73 173.906 652.858 173.906C652.985 173.906 653.111 173.931 653.229 173.981C653.346 174.03 653.453 174.102 653.542 174.192L659.609 180.29V177.783C659.609 177.526 659.711 177.28 659.892 177.099C660.073 176.917 660.318 176.815 660.574 176.815C660.83 176.815 661.075 176.917 661.256 177.099C661.437 177.28 661.538 177.526 661.538 177.783V182.622C661.537 182.749 661.511 182.873 661.461 182.99Z" fill="#8B1DBF"/>
<rect x="920.106" y="159.383" width="34.733" height="34.8581" rx="8" fill="#E4DFFF"/>
<path d="M937.473 177.78C936.901 177.78 936.341 177.951 935.865 178.27C935.389 178.589 935.018 179.043 934.799 179.574C934.58 180.104 934.523 180.689 934.634 181.252C934.746 181.815 935.022 182.333 935.427 182.739C935.831 183.146 936.347 183.422 936.909 183.534C937.47 183.646 938.052 183.589 938.581 183.369C939.11 183.149 939.562 182.777 939.88 182.299C940.198 181.821 940.368 181.26 940.368 180.685C940.368 179.915 940.063 179.176 939.52 178.631C938.977 178.087 938.241 177.78 937.473 177.78ZM937.473 181.654C937.282 181.654 937.096 181.597 936.937 181.49C936.779 181.384 936.655 181.233 936.582 181.056C936.509 180.879 936.49 180.684 936.527 180.496C936.564 180.309 936.656 180.136 936.791 180.001C936.926 179.865 937.098 179.773 937.285 179.736C937.472 179.698 937.666 179.717 937.842 179.791C938.019 179.864 938.169 179.988 938.275 180.147C938.381 180.307 938.438 180.494 938.438 180.685C938.438 180.942 938.336 181.188 938.155 181.37C937.975 181.552 937.729 181.654 937.473 181.654ZM936.788 175.563C936.88 175.651 936.988 175.72 937.107 175.766C937.222 175.818 937.347 175.844 937.473 175.844C937.599 175.844 937.724 175.818 937.84 175.766C937.958 175.72 938.066 175.651 938.158 175.563L940.368 173.384C940.554 173.197 940.659 172.943 940.659 172.678C940.659 172.413 940.554 172.158 940.368 171.971C940.181 171.783 939.928 171.678 939.663 171.678C939.399 171.678 939.146 171.783 938.959 171.971L938.438 172.542V169.066C938.438 168.809 938.336 168.563 938.155 168.381C937.975 168.2 937.729 168.098 937.473 168.098C937.217 168.098 936.972 168.2 936.791 168.381C936.61 168.563 936.508 168.809 936.508 169.066V172.542L935.987 171.971C935.801 171.783 935.547 171.678 935.283 171.678C935.019 171.678 934.766 171.783 934.579 171.971C934.392 172.158 934.287 172.413 934.287 172.678C934.287 172.943 934.392 173.197 934.579 173.384L936.788 175.563ZM944.227 180.685C944.227 180.494 944.17 180.307 944.064 180.147C943.958 179.988 943.808 179.864 943.631 179.791C943.455 179.717 943.261 179.698 943.074 179.736C942.887 179.773 942.715 179.865 942.58 180.001C942.445 180.136 942.353 180.309 942.316 180.496C942.279 180.684 942.298 180.879 942.371 181.056C942.444 181.233 942.567 181.384 942.726 181.49C942.885 181.597 943.071 181.654 943.262 181.654C943.518 181.654 943.763 181.552 943.944 181.37C944.125 181.188 944.227 180.942 944.227 180.685ZM945.192 173.907H942.297C942.041 173.907 941.796 174.009 941.615 174.191C941.434 174.373 941.332 174.619 941.332 174.876C941.332 175.132 941.434 175.379 941.615 175.56C941.796 175.742 942.041 175.844 942.297 175.844H945.192C945.448 175.844 945.693 175.946 945.874 176.128C946.055 176.309 946.156 176.555 946.156 176.812V184.558C946.156 184.815 946.055 185.062 945.874 185.243C945.693 185.425 945.448 185.527 945.192 185.527H929.755C929.499 185.527 929.253 185.425 929.073 185.243C928.892 185.062 928.79 184.815 928.79 184.558V176.812C928.79 176.555 928.892 176.309 929.073 176.128C929.253 175.946 929.499 175.844 929.755 175.844H932.649C932.905 175.844 933.15 175.742 933.331 175.56C933.512 175.379 933.614 175.132 933.614 174.876C933.614 174.619 933.512 174.373 933.331 174.191C933.15 174.009 932.905 173.907 932.649 173.907H929.755C928.987 173.907 928.251 174.213 927.708 174.758C927.165 175.303 926.86 176.042 926.86 176.812V184.558C926.86 185.329 927.165 186.068 927.708 186.612C928.251 187.157 928.987 187.463 929.755 187.463H945.192C945.959 187.463 946.696 187.157 947.238 186.612C947.781 186.068 948.086 185.329 948.086 184.558V176.812C948.086 176.042 947.781 175.303 947.238 174.758C946.696 174.213 945.959 173.907 945.192 173.907ZM930.72 180.685C930.72 180.877 930.776 181.064 930.882 181.223C930.988 181.382 931.139 181.507 931.315 181.58C931.491 181.653 931.685 181.672 931.873 181.635C932.06 181.598 932.232 181.505 932.367 181.37C932.502 181.235 932.593 181.062 932.631 180.874C932.668 180.686 932.649 180.492 932.576 180.315C932.503 180.138 932.379 179.987 932.22 179.88C932.062 179.774 931.875 179.717 931.684 179.717C931.429 179.717 931.183 179.819 931.002 180.001C930.821 180.182 930.72 180.428 930.72 180.685Z" fill="#8B1DBF"/>
<path d="M247.028 27.131L241.561 43H237.511L232.111 27.131H235.962L239.271 38.1751C239.448 38.7727 239.555 39.3002 239.591 39.7576H239.658C239.709 39.2633 239.824 38.721 240.001 38.1308L243.288 27.131H247.028ZM252.663 43H249.089V27.131H252.663V43ZM255.709 42.3914V38.8501C256.351 39.3887 257.048 39.7945 257.8 40.0674C258.553 40.333 259.313 40.4658 260.08 40.4658C260.53 40.4658 260.921 40.4252 261.253 40.3441C261.592 40.2629 261.873 40.1523 262.094 40.0121C262.323 39.8646 262.492 39.6949 262.603 39.5031C262.714 39.3039 262.769 39.0899 262.769 38.8612C262.769 38.5514 262.681 38.2747 262.504 38.0312C262.326 37.7878 262.083 37.5628 261.773 37.3562C261.471 37.1496 261.109 36.9504 260.689 36.7586C260.268 36.5668 259.814 36.3713 259.328 36.1721C258.088 35.6557 257.162 35.0249 256.55 34.2798C255.945 33.5347 255.642 32.6346 255.642 31.5796C255.642 30.7533 255.808 30.0451 256.14 29.4549C256.472 28.8573 256.922 28.3667 257.491 27.9831C258.066 27.5994 258.73 27.3191 259.482 27.142C260.235 26.9576 261.032 26.8654 261.873 26.8654C262.699 26.8654 263.429 26.917 264.064 27.0203C264.706 27.1162 265.296 27.2675 265.834 27.474V30.7828C265.569 30.5984 265.277 30.4361 264.96 30.2959C264.65 30.1558 264.329 30.0414 263.997 29.9529C263.666 29.857 263.334 29.7869 263.002 29.7426C262.677 29.6983 262.367 29.6762 262.072 29.6762C261.666 29.6762 261.297 29.7168 260.965 29.7979C260.633 29.8717 260.353 29.9787 260.124 30.1189C259.896 30.259 259.719 30.4287 259.593 30.6279C259.468 30.8197 259.405 31.0374 259.405 31.2808C259.405 31.5464 259.475 31.7862 259.615 32.0001C259.755 32.2067 259.955 32.4059 260.213 32.5977C260.471 32.7821 260.785 32.9666 261.153 33.151C261.522 33.3281 261.939 33.5125 262.404 33.7043C263.038 33.9699 263.606 34.254 264.108 34.5564C264.617 34.8515 265.052 35.1872 265.414 35.5635C265.775 35.9397 266.052 36.3713 266.244 36.8582C266.436 37.3378 266.532 37.8985 266.532 38.5403C266.532 39.4256 266.362 40.1707 266.023 40.7757C265.691 41.3733 265.237 41.8602 264.661 42.2364C264.086 42.6053 263.415 42.8709 262.647 43.0332C261.888 43.1955 261.083 43.2767 260.235 43.2767C259.364 43.2767 258.534 43.2029 257.745 43.0553C256.963 42.9078 256.284 42.6865 255.709 42.3914ZM283.255 43H279.36L278.231 39.4699H272.587L271.47 43H267.596L273.373 27.131H277.611L283.255 43ZM277.412 36.7254L275.708 31.3915C275.583 30.9931 275.494 30.5173 275.442 29.9639H275.354C275.317 30.4287 275.225 30.8898 275.077 31.3472L273.351 36.7254H277.412ZM279.404 22.2176C279.404 23.2504 279.198 24.0509 278.784 24.6189C278.379 25.1796 277.822 25.46 277.113 25.46C276.479 25.46 275.859 25.3013 275.254 24.9841C274.598 24.6374 274.144 24.464 273.893 24.464C273.303 24.464 273.008 24.8624 273.008 25.6592H271.448C271.448 24.6337 271.65 23.8369 272.056 23.2688C272.462 22.7008 273.03 22.4167 273.76 22.4167C274.358 22.4167 274.978 22.5975 275.62 22.959C276.202 23.2836 276.645 23.4459 276.947 23.4459C277.523 23.4459 277.811 23.0365 277.811 22.2176H279.404ZM292.1 43.2767C289.827 43.2767 287.976 42.5389 286.544 41.0634C285.113 39.5805 284.398 37.6513 284.398 35.2757C284.398 32.7674 285.124 30.7386 286.578 29.1893C288.031 27.64 289.957 26.8654 292.354 26.8654C294.619 26.8654 296.449 27.6068 297.843 29.0897C299.245 30.5726 299.946 32.5276 299.946 34.9548C299.946 37.4484 299.219 39.4588 297.766 40.9859C296.32 42.5131 294.431 43.2767 292.1 43.2767ZM292.255 29.9418C291 29.9418 290.004 30.414 289.267 31.3583C288.529 32.2952 288.16 33.5383 288.16 35.0876C288.16 36.659 288.529 37.9021 289.267 38.817C290.004 39.7318 290.971 40.1892 292.166 40.1892C293.398 40.1892 294.376 39.7465 295.099 38.8612C295.822 37.9685 296.183 36.7328 296.183 35.154C296.183 33.5088 295.833 32.2288 295.132 31.314C294.431 30.3992 293.472 29.9418 292.255 29.9418ZM322.194 41.9376C320.644 42.8303 318.719 43.2767 316.417 43.2767C313.865 43.2767 311.85 42.5721 310.375 41.163C308.907 39.7465 308.173 37.7989 308.173 35.32C308.173 32.8264 308.977 30.7939 310.585 29.2225C312.194 27.6511 314.333 26.8654 317.004 26.8654C318.686 26.8654 320.169 27.0978 321.452 27.5626V30.9156C320.228 30.2074 318.73 29.8533 316.959 29.8533C315.477 29.8533 314.267 30.3365 313.33 31.303C312.4 32.262 311.935 33.5457 311.935 35.154C311.935 36.7844 312.352 38.046 313.186 38.9387C314.027 39.8314 315.159 40.2777 316.583 40.2777C317.439 40.2777 318.118 40.156 318.619 39.9125V36.814H315.443V33.9589H322.194V41.9376ZM334.956 43H325.439V27.131H334.59V30.0414H329.013V33.5715H334.203V36.4709H329.013V40.1006H334.956V43ZM350.971 43H346.865L344.398 38.9165C344.213 38.6067 344.036 38.33 343.866 38.0866C343.697 37.8431 343.523 37.6365 343.346 37.4669C343.177 37.2898 342.996 37.157 342.804 37.0685C342.62 36.9726 342.417 36.9246 342.195 36.9246H341.233V43H337.658V27.131H343.324C347.175 27.131 349.101 28.5696 349.101 31.4468C349.101 32.0001 349.016 32.5129 348.846 32.985C348.677 33.4498 348.437 33.8703 348.127 34.2466C347.817 34.6228 347.441 34.9474 346.998 35.2204C346.563 35.4934 346.076 35.7073 345.537 35.8623V35.9065C345.774 35.9803 346.002 36.102 346.224 36.2717C346.445 36.434 346.659 36.6258 346.865 36.8472C347.072 37.0685 347.267 37.3082 347.452 37.5665C347.644 37.8173 347.817 38.0644 347.972 38.3079L350.971 43ZM341.233 29.809V34.2245H342.782C343.549 34.2245 344.165 34.0031 344.63 33.5605C345.102 33.1104 345.338 32.5534 345.338 31.8895C345.338 30.5025 344.508 29.809 342.848 29.809H341.233ZM366.577 43H362.682L361.553 39.4699H355.909L354.791 43H350.918L356.695 27.131H360.933L366.577 43ZM360.734 36.7254L359.03 31.3915C358.904 30.9931 358.816 30.5173 358.764 29.9639H358.676C358.639 30.4287 358.546 30.8898 358.399 31.3472L356.673 36.7254H360.734ZM378.166 43H368.715V27.131H372.29V40.1006H378.166V43Z" fill="#4E4E4E"/>
<path d="M235.541 57.7217V51.2273H237.334C239.623 51.2273 240.767 52.2825 240.767 54.3929C240.767 55.3953 240.449 56.2015 239.812 56.8114C239.178 57.4182 238.328 57.7217 237.262 57.7217H235.541ZM236.302 51.9156V57.0333H237.271C238.122 57.0333 238.785 56.8053 239.259 56.3494C239.733 55.8935 239.97 55.2474 239.97 54.4111C239.97 52.7474 239.085 51.9156 237.316 51.9156H236.302ZM248.671 57.7217H247.829L247.14 55.9011H244.387L243.739 57.7217H242.892L245.383 51.2273H246.171L248.671 57.7217ZM246.891 55.2172L245.872 52.4501C245.839 52.3595 245.806 52.2146 245.773 52.0153H245.755C245.724 52.1995 245.69 52.3444 245.65 52.4501L244.64 55.2172H246.891ZM251.154 57.459V56.5623C251.257 56.6529 251.379 56.7344 251.521 56.8068C251.666 56.8793 251.817 56.9412 251.974 56.9925C252.134 57.0408 252.294 57.0786 252.454 57.1058C252.614 57.1329 252.762 57.1465 252.898 57.1465C253.366 57.1465 253.714 57.0605 253.944 56.8884C254.176 56.7132 254.292 56.4626 254.292 56.1366C254.292 55.9615 254.253 55.809 254.175 55.6792C254.099 55.5493 253.994 55.4316 253.858 55.3259C253.722 55.2172 253.56 55.1145 253.373 55.0179C253.189 54.9183 252.99 54.8141 252.775 54.7054C252.549 54.5907 252.338 54.4745 252.141 54.3567C251.945 54.239 251.774 54.1091 251.63 53.9672C251.485 53.8253 251.37 53.6653 251.285 53.4872C251.204 53.306 251.163 53.0947 251.163 52.8531C251.163 52.5572 251.228 52.3006 251.358 52.0832C251.488 51.8628 251.658 51.6817 251.87 51.5397C252.081 51.3978 252.321 51.2922 252.59 51.2227C252.861 51.1533 253.138 51.1186 253.418 51.1186C254.059 51.1186 254.525 51.1956 254.818 51.3495V52.2055C254.434 51.9398 253.942 51.807 253.341 51.807C253.175 51.807 253.009 51.8251 252.843 51.8613C252.677 51.8945 252.529 51.9504 252.399 52.0289C252.27 52.1074 252.164 52.2085 252.082 52.3323C252.001 52.4561 251.96 52.6071 251.96 52.7852C251.96 52.9512 251.99 53.0947 252.051 53.2154C252.114 53.3362 252.206 53.4464 252.327 53.546C252.448 53.6457 252.594 53.7423 252.766 53.8359C252.941 53.9295 253.142 54.0321 253.369 54.1439C253.601 54.2586 253.821 54.3794 254.03 54.5062C254.238 54.633 254.421 54.7734 254.578 54.9274C254.735 55.0813 254.859 55.2519 254.949 55.4391C255.043 55.6263 255.09 55.8407 255.09 56.0822C255.09 56.4023 255.026 56.674 254.899 56.8974C254.776 57.1178 254.606 57.2975 254.392 57.4364C254.181 57.5752 253.936 57.6749 253.658 57.7353C253.381 57.7987 253.088 57.8304 252.78 57.8304C252.677 57.8304 252.55 57.8213 252.399 57.8032C252.248 57.7881 252.094 57.7639 251.937 57.7307C251.78 57.7005 251.631 57.6628 251.489 57.6175C251.35 57.5692 251.239 57.5164 251.154 57.459ZM263.093 57.7217H262.332V54.7598H258.972V57.7217H258.211V51.2273H258.972V54.0759H262.332V51.2273H263.093V57.7217ZM266.622 57.7217V51.2273H268.47C269.032 51.2273 269.477 51.3646 269.806 51.6394C270.135 51.9141 270.3 52.2719 270.3 52.7127C270.3 53.0811 270.2 53.4011 270.001 53.6729C269.801 53.9446 269.527 54.1378 269.176 54.2526V54.2707C269.614 54.322 269.964 54.4881 270.227 54.7688C270.49 55.0466 270.621 55.4089 270.621 55.8558C270.621 56.4113 270.422 56.8612 270.023 57.2054C269.625 57.5496 269.122 57.7217 268.515 57.7217H266.622ZM267.383 51.9156V54.0125H268.162C268.579 54.0125 268.906 53.9129 269.145 53.7136C269.383 53.5113 269.503 53.2275 269.503 52.8622C269.503 52.2312 269.087 51.9156 268.257 51.9156H267.383ZM267.383 54.6964V57.0333H268.416C268.862 57.0333 269.208 56.9276 269.453 56.7163C269.7 56.5049 269.824 56.2151 269.824 55.8467C269.824 55.0798 269.302 54.6964 268.257 54.6964H267.383ZM276.383 57.8304C275.462 57.8304 274.724 57.5269 274.168 56.9201C273.616 56.3132 273.339 55.5237 273.339 54.5515C273.339 53.5068 273.622 52.6735 274.186 52.0515C274.751 51.4295 275.519 51.1186 276.492 51.1186C277.388 51.1186 278.11 51.4205 278.656 52.0243C279.206 52.6282 279.481 53.4177 279.481 54.3929C279.481 55.4527 279.2 56.2906 278.638 56.9065C278.077 57.5224 277.325 57.8304 276.383 57.8304ZM276.437 51.807C275.755 51.807 275.201 52.053 274.775 52.5452C274.349 53.0373 274.137 53.6834 274.137 54.4835C274.137 55.2836 274.343 55.9282 274.757 56.4174C275.174 56.9035 275.716 57.1465 276.383 57.1465C277.095 57.1465 277.657 56.914 278.068 56.4491C278.478 55.9841 278.684 55.3334 278.684 54.4971C278.684 53.6396 278.484 52.9769 278.086 52.5089C277.687 52.0409 277.138 51.807 276.437 51.807ZM287.385 57.7217H286.542L285.854 55.9011H283.1L282.453 57.7217H281.606L284.097 51.2273H284.885L287.385 57.7217ZM285.605 55.2172L284.586 52.4501C284.553 52.3595 284.519 52.2146 284.486 52.0153H284.468C284.438 52.1995 284.403 52.3444 284.364 52.4501L283.354 55.2172H285.605ZM294.827 57.7217H293.921L292.834 55.9011C292.734 55.732 292.638 55.5886 292.544 55.4708C292.45 55.3501 292.354 55.2519 292.254 55.1764C292.158 55.101 292.052 55.0466 291.937 55.0134C291.825 54.9772 291.699 54.9591 291.557 54.9591H290.932V57.7217H290.171V51.2273H292.109C292.393 51.2273 292.654 51.2635 292.893 51.3359C293.134 51.4054 293.343 51.5126 293.518 51.6575C293.696 51.8024 293.835 51.9836 293.934 52.201C294.034 52.4153 294.084 52.6674 294.084 52.9573C294.084 53.1837 294.049 53.3921 293.98 53.5823C293.913 53.7695 293.817 53.937 293.69 54.085C293.566 54.2329 293.415 54.3597 293.237 54.4654C293.062 54.5681 292.864 54.6481 292.644 54.7054V54.7236C292.752 54.7719 292.846 54.8277 292.924 54.8911C293.006 54.9515 293.083 55.024 293.155 55.1085C293.228 55.193 293.299 55.2897 293.368 55.3984C293.441 55.504 293.521 55.6278 293.608 55.7697L294.827 57.7217ZM290.932 51.9156V54.2707H291.964C292.155 54.2707 292.33 54.242 292.49 54.1846C292.653 54.1273 292.793 54.0457 292.911 53.9401C293.029 53.8314 293.121 53.7 293.187 53.546C293.254 53.389 293.287 53.2139 293.287 53.0207C293.287 52.6735 293.174 52.4033 292.947 52.21C292.724 52.0138 292.399 51.9156 291.973 51.9156H290.932ZM297.549 57.7217V51.2273H299.343C301.631 51.2273 302.776 52.2825 302.776 54.3929C302.776 55.3953 302.457 56.2015 301.82 56.8114C301.186 57.4182 300.336 57.7217 299.27 57.7217H297.549ZM298.31 51.9156V57.0333H299.279C300.131 57.0333 300.794 56.8053 301.268 56.3494C301.742 55.8935 301.979 55.2474 301.979 54.4111C301.979 52.7474 301.094 51.9156 299.325 51.9156H298.31ZM313.547 51.9156H311.011V54.162H313.357V54.8458H311.011V57.7217H310.25V51.2273H313.547V51.9156ZM317.366 57.7217H316.605V51.2273H317.366V57.7217ZM326.14 57.7217H325.207L321.865 52.5452C321.78 52.4153 321.711 52.2795 321.656 52.1376H321.629C321.653 52.2764 321.665 52.5738 321.665 53.0298V57.7217H320.904V51.2273H321.892L325.143 56.3223C325.279 56.5336 325.367 56.6785 325.406 56.757H325.424C325.394 56.5698 325.379 56.2513 325.379 55.8014V51.2273H326.14V57.7217ZM334.696 57.7217H333.853L333.165 55.9011H330.412L329.764 57.7217H328.917L331.408 51.2273H332.196L334.696 57.7217ZM332.916 55.2172L331.897 52.4501C331.864 52.3595 331.831 52.2146 331.797 52.0153H331.779C331.749 52.1995 331.714 52.3444 331.675 52.4501L330.665 55.2172H332.916ZM342.718 57.7217H341.785L338.442 52.5452C338.358 52.4153 338.288 52.2795 338.234 52.1376H338.207C338.231 52.2764 338.243 52.5738 338.243 53.0298V57.7217H337.482V51.2273H338.469L341.721 56.3223C341.857 56.5336 341.945 56.6785 341.984 56.757H342.002C341.972 56.5698 341.957 56.2513 341.957 55.8014V51.2273H342.718V57.7217ZM350.667 57.4499C350.187 57.7036 349.589 57.8304 348.873 57.8304C347.949 57.8304 347.21 57.533 346.654 56.9382C346.099 56.3434 345.821 55.5629 345.821 54.5967C345.821 53.5581 346.133 52.7188 346.758 52.0787C347.383 51.4386 348.176 51.1186 349.136 51.1186C349.752 51.1186 350.262 51.2076 350.667 51.3858V52.1964C350.202 51.9368 349.688 51.807 349.127 51.807C348.381 51.807 347.776 52.056 347.311 52.5542C346.849 53.0524 346.618 53.7181 346.618 54.5515C346.618 55.3425 346.834 55.9735 347.266 56.4445C347.7 56.9125 348.269 57.1465 348.973 57.1465C349.625 57.1465 350.19 57.0016 350.667 56.7117V57.4499ZM357.257 57.7217H353.815V51.2273H357.112V51.9156H354.576V54.0759H356.922V54.7598H354.576V57.0333H357.257V57.7217ZM361.094 57.7217H360.333V51.2273H361.094V57.7217ZM369.288 57.7217H368.382L367.295 55.9011C367.196 55.732 367.099 55.5886 367.005 55.4708C366.912 55.3501 366.815 55.2519 366.716 55.1764C366.619 55.101 366.513 55.0466 366.399 55.0134C366.287 54.9772 366.16 54.9591 366.018 54.9591H365.393V57.7217H364.632V51.2273H366.571C366.854 51.2273 367.116 51.2635 367.354 51.3359C367.596 51.4054 367.804 51.5126 367.979 51.6575C368.157 51.8024 368.296 51.9836 368.396 52.201C368.495 52.4153 368.545 52.6674 368.545 52.9573C368.545 53.1837 368.511 53.3921 368.441 53.5823C368.375 53.7695 368.278 53.937 368.151 54.085C368.027 54.2329 367.876 54.3597 367.698 54.4654C367.523 54.5681 367.325 54.6481 367.105 54.7054V54.7236C367.214 54.7719 367.307 54.8277 367.386 54.8911C367.467 54.9515 367.544 55.024 367.617 55.1085C367.689 55.193 367.76 55.2897 367.83 55.3984C367.902 55.504 367.982 55.6278 368.07 55.7697L369.288 57.7217ZM365.393 51.9156V54.2707H366.426C366.616 54.2707 366.791 54.242 366.951 54.1846C367.114 54.1273 367.255 54.0457 367.372 53.9401C367.49 53.8314 367.582 53.7 367.649 53.546C367.715 53.389 367.748 53.2139 367.748 53.0207C367.748 52.6735 367.635 52.4033 367.409 52.21C367.185 52.0138 366.861 51.9156 366.435 51.9156H365.393ZM374.538 57.8304C373.617 57.8304 372.879 57.5269 372.323 56.9201C371.771 56.3132 371.495 55.5237 371.495 54.5515C371.495 53.5068 371.777 52.6735 372.341 52.0515C372.906 51.4295 373.674 51.1186 374.647 51.1186C375.543 51.1186 376.265 51.4205 376.811 52.0243C377.361 52.6282 377.636 53.4177 377.636 54.3929C377.636 55.4527 377.355 56.2906 376.793 56.9065C376.232 57.5224 375.48 57.8304 374.538 57.8304ZM374.592 51.807C373.91 51.807 373.356 52.053 372.93 52.5452C372.505 53.0373 372.292 53.6834 372.292 54.4835C372.292 55.2836 372.498 55.9282 372.912 56.4174C373.329 56.9035 373.871 57.1465 374.538 57.1465C375.251 57.1465 375.812 56.914 376.223 56.4491C376.633 55.9841 376.839 55.3334 376.839 54.4971C376.839 53.6396 376.639 52.9769 376.241 52.5089C375.842 52.0409 375.293 51.807 374.592 51.807Z" fill="#4E4E4E"/>
<path d="M100.298 44V43.1458L106.555 35.6887L100.298 28.2316V27.3774H103.6L108.587 33.2876L113.527 27.3774H116.852V28.2316L110.572 35.6887L116.852 43.1227V44H113.527L108.564 38.1128L103.6 44H100.298ZM119.425 44V27.4004H132.816C133.401 27.4004 133.939 27.5467 134.432 27.8391C134.924 28.1315 135.317 28.524 135.609 29.0165C135.902 29.4937 136.048 30.0247 136.048 30.6095V35.0884C136.048 35.6733 135.902 36.212 135.609 36.7045C135.317 37.197 134.924 37.5895 134.432 37.8819C133.939 38.159 133.401 38.2975 132.816 38.2975L122.473 38.3206V44H119.425ZM122.75 35.2269H132.677C132.754 35.2269 132.823 35.2039 132.885 35.1577C132.947 35.1115 132.977 35.0499 132.977 34.973V30.725C132.977 30.648 132.947 30.5865 132.885 30.5403C132.823 30.4787 132.754 30.4479 132.677 30.4479H122.75C122.673 30.4479 122.604 30.4787 122.542 30.5403C122.496 30.5865 122.473 30.648 122.473 30.725V34.973C122.473 35.0499 122.496 35.1115 122.542 35.1577C122.604 35.2039 122.673 35.2269 122.75 35.2269ZM137.894 44V27.3774H153.201V30.4479H140.965V34.1419H150.8V37.2355H140.965V40.9294H153.201V44H137.894ZM168.936 44L163.926 38.0205H167.92L172.261 43.1458V44H168.936ZM155.684 44V27.4004H169.075C169.659 27.4004 170.198 27.5467 170.691 27.8391C171.183 28.1315 171.576 28.524 171.868 29.0165C172.161 29.4937 172.307 30.0247 172.307 30.6095V35.0884C172.307 35.6733 172.161 36.212 171.868 36.7045C171.576 37.197 171.183 37.5895 170.691 37.8819C170.198 38.159 169.659 38.2975 169.075 38.2975L158.732 38.3206V44H155.684ZM159.009 35.2269H168.936C169.013 35.2269 169.082 35.2039 169.144 35.1577C169.205 35.1115 169.236 35.0499 169.236 34.973V30.725C169.236 30.648 169.205 30.5865 169.144 30.5403C169.082 30.4787 169.013 30.4479 168.936 30.4479H159.009C158.932 30.4479 158.862 30.4787 158.801 30.5403C158.755 30.5865 158.732 30.648 158.732 30.725V34.973C158.732 35.0499 158.755 35.1115 158.801 35.1577C158.862 35.2039 158.932 35.2269 159.009 35.2269ZM174.572 44V27.3774H177.597V44H174.572ZM180.04 44V30.5865C180.04 30.0016 180.186 29.4706 180.478 28.9934C180.771 28.5009 181.156 28.1084 181.633 27.816C182.125 27.5236 182.664 27.3774 183.249 27.3774H193.43C194.015 27.3774 194.554 27.5236 195.046 27.816C195.539 28.1084 195.931 28.5009 196.224 28.9934C196.516 29.4706 196.662 30.0016 196.662 30.5865V44H193.592V38.4129H183.087V44H180.04ZM183.087 35.3655H193.592V30.725C193.592 30.648 193.561 30.5865 193.499 30.5403C193.438 30.4787 193.369 30.4479 193.292 30.4479H183.364C183.287 30.4479 183.218 30.4787 183.157 30.5403C183.11 30.5865 183.087 30.648 183.087 30.725V35.3655ZM135.407 57C135.152 57 134.917 56.9363 134.703 56.8089C134.495 56.6814 134.327 56.5138 134.2 56.3059C134.079 56.098 134.019 55.8666 134.019 55.6117V53.4186H138.626V52.6038C138.626 52.5702 138.613 52.5434 138.586 52.5233C138.566 52.4965 138.539 52.4831 138.505 52.4831H134.019V51.1652H138.556C138.81 51.1652 139.042 51.2289 139.25 51.3563C139.464 51.4838 139.632 51.6514 139.753 51.8593C139.88 52.0672 139.944 52.2986 139.944 52.5535V57H135.407ZM135.457 55.6821H138.626V54.6057H135.336V55.5614C135.336 55.595 135.346 55.6251 135.367 55.652C135.393 55.6721 135.424 55.6821 135.457 55.6821ZM142.562 57C142.307 57 142.073 56.9363 141.858 56.8089C141.65 56.6814 141.482 56.5138 141.355 56.3059C141.234 56.098 141.174 55.8666 141.174 55.6117V51.1652H142.492V55.5614C142.492 55.595 142.502 55.6251 142.522 55.652C142.549 55.6721 142.579 55.6821 142.613 55.6821H145.661C145.694 55.6821 145.721 55.6721 145.741 55.652C145.768 55.6251 145.781 55.595 145.781 55.5614V51.1652H147.099V55.6117C147.099 55.8666 147.036 56.098 146.908 56.3059C146.787 56.5138 146.623 56.6814 146.415 56.8089C146.207 56.9363 145.973 57 145.711 57H142.562ZM149.501 57C149.246 57 149.015 56.9363 148.807 56.8089C148.599 56.6814 148.432 56.5138 148.304 56.3059C148.177 56.098 148.113 55.8666 148.113 55.6117V49.3745H149.431V51.1652H151.704V52.4831H149.431V55.5614C149.431 55.595 149.441 55.6251 149.461 55.652C149.488 55.6721 149.518 55.6821 149.552 55.6821H151.704V57H149.501ZM154.053 57C153.798 57 153.566 56.9363 153.358 56.8089C153.15 56.6814 152.983 56.5138 152.855 56.3059C152.728 56.098 152.664 55.8666 152.664 55.6117V52.5535C152.664 52.2986 152.728 52.0672 152.855 51.8593C152.983 51.6514 153.15 51.4838 153.358 51.3563C153.566 51.2289 153.798 51.1652 154.053 51.1652H157.201C157.456 51.1652 157.688 51.2289 157.895 51.3563C158.11 51.4838 158.278 51.6514 158.398 51.8593C158.526 52.0672 158.59 52.2986 158.59 52.5535V55.6117C158.59 55.8666 158.526 56.098 158.398 56.3059C158.278 56.5138 158.113 56.6814 157.906 56.8089C157.698 56.9363 157.463 57 157.201 57H154.053ZM154.103 55.6821H157.151C157.185 55.6821 157.211 55.6721 157.231 55.652C157.258 55.6251 157.272 55.595 157.272 55.5614V52.6038C157.272 52.5702 157.258 52.5434 157.231 52.5233C157.211 52.4965 157.185 52.4831 157.151 52.4831H154.103C154.069 52.4831 154.039 52.4965 154.012 52.5233C153.992 52.5434 153.982 52.5702 153.982 52.6038V55.5614C153.982 55.595 153.992 55.6251 154.012 55.652C154.039 55.6721 154.069 55.6821 154.103 55.6821ZM159.82 57V51.1652H167.053C167.315 51.1652 167.55 51.2289 167.757 51.3563C167.965 51.4838 168.13 51.6514 168.25 51.8593C168.378 52.0672 168.442 52.2986 168.442 52.5535V57H167.134V52.6038C167.134 52.5702 167.12 52.5434 167.094 52.5233C167.067 52.4965 167.036 52.4831 167.003 52.4831H164.921C164.887 52.4831 164.857 52.4965 164.83 52.5233C164.81 52.5434 164.8 52.5702 164.8 52.6038V57H163.472V52.6038C163.472 52.5702 163.458 52.5434 163.432 52.5233C163.412 52.4965 163.385 52.4831 163.351 52.4831H161.259C161.225 52.4831 161.195 52.4965 161.168 52.5233C161.148 52.5434 161.138 52.5702 161.138 52.6038V57H159.82ZM171.173 57C170.918 57 170.686 56.9363 170.478 56.8089C170.271 56.6814 170.103 56.5138 169.975 56.3059C169.848 56.098 169.784 55.8666 169.784 55.6117V52.5535C169.784 52.2986 169.848 52.0672 169.975 51.8593C170.103 51.6514 170.271 51.4838 170.478 51.3563C170.686 51.2289 170.918 51.1652 171.173 51.1652H174.321C174.576 51.1652 174.808 51.2289 175.016 51.3563C175.23 51.4838 175.398 51.6514 175.519 51.8593C175.646 52.0672 175.71 52.2986 175.71 52.5535V55.6117C175.71 55.8666 175.646 56.098 175.519 56.3059C175.398 56.5138 175.233 56.6814 175.026 56.8089C174.818 56.9363 174.583 57 174.321 57H171.173ZM171.223 55.6821H174.271C174.305 55.6821 174.331 55.6721 174.352 55.652C174.378 55.6251 174.392 55.595 174.392 55.5614V52.6038C174.392 52.5702 174.378 52.5434 174.352 52.5233C174.331 52.4965 174.305 52.4831 174.271 52.4831H171.223C171.189 52.4831 171.159 52.4965 171.132 52.5233C171.112 52.5434 171.102 52.5702 171.102 52.6038V55.5614C171.102 55.595 171.112 55.6251 171.132 55.652C171.159 55.6721 171.189 55.6821 171.223 55.6821ZM178.122 57C177.867 57 177.636 56.9363 177.428 56.8089C177.22 56.6814 177.052 56.5138 176.925 56.3059C176.797 56.098 176.734 55.8666 176.734 55.6117V49.3745H178.052V51.1652H180.325V52.4831H178.052V55.5614C178.052 55.595 178.062 55.6251 178.082 55.652C178.109 55.6721 178.139 55.6821 178.172 55.6821H180.325V57H178.122ZM181.305 57V51.1652H182.623V57H181.305ZM181.305 50.5817V49.2538H182.623V50.5817H181.305ZM186.651 57L183.442 51.1652H184.961L187.265 55.4005L189.559 51.1652H191.078L187.859 57H186.651ZM192.936 57C192.681 57 192.45 56.9363 192.242 56.8089C192.034 56.6814 191.866 56.5138 191.739 56.3059C191.611 56.098 191.548 55.8666 191.548 55.6117V52.5535C191.548 52.2986 191.611 52.0672 191.739 51.8593C191.866 51.6514 192.034 51.4838 192.242 51.3563C192.45 51.2289 192.681 51.1652 192.936 51.1652H196.085C196.34 51.1652 196.571 51.2289 196.779 51.3563C196.994 51.4838 197.161 51.6514 197.282 51.8593C197.409 52.0672 197.473 52.2986 197.473 52.5535V54.7466H192.866V55.5614C192.866 55.595 192.876 55.6251 192.896 55.652C192.923 55.6721 192.953 55.6821 192.986 55.6821H197.473V57H192.936ZM192.866 53.5595H196.155V52.6038C196.155 52.5702 196.142 52.5434 196.115 52.5233C196.095 52.4965 196.068 52.4831 196.034 52.4831H192.986C192.953 52.4831 192.923 52.4965 192.896 52.5233C192.876 52.5434 192.866 52.5702 192.866 52.6038V53.5595Z" fill="#6525DC"/>
<line x1="214.5" y1="23" x2="214.5" y2="65" stroke="#4E4E4E"/>
</g>
<defs>
<filter id="filter0_d_1016_72" x="112" y="250" width="585" height="236" filterUnits="userSpaceOnUse" color-interpolation-filters="sRGB">
<feFlood flood-opacity="0" result="BackgroundImageFix"/>
<feColorMatrix in="SourceAlpha" type="matrix" values="0 0 0 0 0 0 0 0 0 0 0 0 0 0 0 0 0 0 127 0" result="hardAlpha"/>
<feOffset dy="4"/>
<feGaussianBlur stdDeviation="8"/>
<feComposite in2="hardAlpha" operator="out"/>
<feColorMatrix type="matrix" values="0 0 0 0 0 0 0 0 0 0 0 0 0 0 0 0 0 0 0.16 0"/>
<feBlend mode="normal" in2="BackgroundImageFix" result="effect1_dropShadow_1016_72"/>
<feBlend mode="normal" in="SourceGraphic" in2="effect1_dropShadow_1016_72" result="shape"/>
</filter>
<filter id="filter1_d_1016_72" x="112" y="474" width="585" height="236" filterUnits="userSpaceOnUse" color-interpolation-filters="sRGB">
<feFlood flood-opacity="0" result="BackgroundImageFix"/>
<feColorMatrix in="SourceAlpha" type="matrix" values="0 0 0 0 0 0 0 0 0 0 0 0 0 0 0 0 0 0 127 0" result="hardAlpha"/>
<feOffset dy="4"/>
<feGaussianBlur stdDeviation="8"/>
<feComposite in2="hardAlpha" operator="out"/>
<feColorMatrix type="matrix" values="0 0 0 0 0 0 0 0 0 0 0 0 0 0 0 0 0 0 0.16 0"/>
<feBlend mode="normal" in2="BackgroundImageFix" result="effect1_dropShadow_1016_72"/>
<feBlend mode="normal" in="SourceGraphic" in2="effect1_dropShadow_1016_72" result="shape"/>
</filter>
<filter id="filter2_d_1016_72" x="684" y="250" width="298" height="236" filterUnits="userSpaceOnUse" color-interpolation-filters="sRGB">
<feFlood flood-opacity="0" result="BackgroundImageFix"/>
<feColorMatrix in="SourceAlpha" type="matrix" values="0 0 0 0 0 0 0 0 0 0 0 0 0 0 0 0 0 0 127 0" result="hardAlpha"/>
<feOffset dy="4"/>
<feGaussianBlur stdDeviation="8"/>
<feComposite in2="hardAlpha" operator="out"/>
<feColorMatrix type="matrix" values="0 0 0 0 0 0 0 0 0 0 0 0 0 0 0 0 0 0 0.16 0"/>
<feBlend mode="normal" in2="BackgroundImageFix" result="effect1_dropShadow_1016_72"/>
<feBlend mode="normal" in="SourceGraphic" in2="effect1_dropShadow_1016_72" result="shape"/>
</filter>
<filter id="filter3_d_1016_72" x="684" y="474" width="298" height="236" filterUnits="userSpaceOnUse" color-interpolation-filters="sRGB">
<feFlood flood-opacity="0" result="BackgroundImageFix"/>
<feColorMatrix in="SourceAlpha" type="matrix" values="0 0 0 0 0 0 0 0 0 0 0 0 0 0 0 0 0 0 127 0" result="hardAlpha"/>
<feOffset dy="4"/>
<feGaussianBlur stdDeviation="8"/>
<feComposite in2="hardAlpha" operator="out"/>
<feColorMatrix type="matrix" values="0 0 0 0 0 0 0 0 0 0 0 0 0 0 0 0 0 0 0.16 0"/>
<feBlend mode="normal" in2="BackgroundImageFix" result="effect1_dropShadow_1016_72"/>
<feBlend mode="normal" in="SourceGraphic" in2="effect1_dropShadow_1016_72" result="shape"/>
</filter>
<filter id="filter4_d_1016_72" x="970" y="250" width="298" height="236" filterUnits="userSpaceOnUse" color-interpolation-filters="sRGB">
<feFlood flood-opacity="0" result="BackgroundImageFix"/>
<feColorMatrix in="SourceAlpha" type="matrix" values="0 0 0 0 0 0 0 0 0 0 0 0 0 0 0 0 0 0 127 0" result="hardAlpha"/>
<feOffset dy="4"/>
<feGaussianBlur stdDeviation="8"/>
<feComposite in2="hardAlpha" operator="out"/>
<feColorMatrix type="matrix" values="0 0 0 0 0 0 0 0 0 0 0 0 0 0 0 0 0 0 0.16 0"/>
<feBlend mode="normal" in2="BackgroundImageFix" result="effect1_dropShadow_1016_72"/>
<feBlend mode="normal" in="SourceGraphic" in2="effect1_dropShadow_1016_72" result="shape"/>
</filter>
<filter id="filter5_d_1016_72" x="970" y="474" width="298" height="236" filterUnits="userSpaceOnUse" color-interpolation-filters="sRGB">
<feFlood flood-opacity="0" result="BackgroundImageFix"/>
<feColorMatrix in="SourceAlpha" type="matrix" values="0 0 0 0 0 0 0 0 0 0 0 0 0 0 0 0 0 0 127 0" result="hardAlpha"/>
<feOffset dy="4"/>
<feGaussianBlur stdDeviation="8"/>
<feComposite in2="hardAlpha" operator="out"/>
<feColorMatrix type="matrix" values="0 0 0 0 0 0 0 0 0 0 0 0 0 0 0 0 0 0 0.16 0"/>
<feBlend mode="normal" in2="BackgroundImageFix" result="effect1_dropShadow_1016_72"/>
<feBlend mode="normal" in="SourceGraphic" in2="effect1_dropShadow_1016_72" result="shape"/>
</filter>
<filter id="filter6_d_1016_72" x="112" y="98" width="298" height="165" filterUnits="userSpaceOnUse" color-interpolation-filters="sRGB">
<feFlood flood-opacity="0" result="BackgroundImageFix"/>
<feColorMatrix in="SourceAlpha" type="matrix" values="0 0 0 0 0 0 0 0 0 0 0 0 0 0 0 0 0 0 127 0" result="hardAlpha"/>
<feOffset dy="4"/>
<feGaussianBlur stdDeviation="8"/>
<feComposite in2="hardAlpha" operator="out"/>
<feColorMatrix type="matrix" values="0 0 0 0 0 0 0 0 0 0 0 0 0 0 0 0 0 0 0.16 0"/>
<feBlend mode="normal" in2="BackgroundImageFix" result="effect1_dropShadow_1016_72"/>
<feBlend mode="normal" in="SourceGraphic" in2="effect1_dropShadow_1016_72" result="shape"/>
</filter>
<filter id="filter7_d_1016_72" x="398" y="98" width="299" height="165" filterUnits="userSpaceOnUse" color-interpolation-filters="sRGB">
<feFlood flood-opacity="0" result="BackgroundImageFix"/>
<feColorMatrix in="SourceAlpha" type="matrix" values="0 0 0 0 0 0 0 0 0 0 0 0 0 0 0 0 0 0 127 0" result="hardAlpha"/>
<feOffset dy="4"/>
<feGaussianBlur stdDeviation="8"/>
<feComposite in2="hardAlpha" operator="out"/>
<feColorMatrix type="matrix" values="0 0 0 0 0 0 0 0 0 0 0 0 0 0 0 0 0 0 0.16 0"/>
<feBlend mode="normal" in2="BackgroundImageFix" result="effect1_dropShadow_1016_72"/>
<feBlend mode="normal" in="SourceGraphic" in2="effect1_dropShadow_1016_72" result="shape"/>
</filter>
<filter id="filter8_d_1016_72" x="684" y="98" width="298" height="165" filterUnits="userSpaceOnUse" color-interpolation-filters="sRGB">
<feFlood flood-opacity="0" result="BackgroundImageFix"/>
<feColorMatrix in="SourceAlpha" type="matrix" values="0 0 0 0 0 0 0 0 0 0 0 0 0 0 0 0 0 0 127 0" result="hardAlpha"/>
<feOffset dy="4"/>
<feGaussianBlur stdDeviation="8"/>
<feComposite in2="hardAlpha" operator="out"/>
<feColorMatrix type="matrix" values="0 0 0 0 0 0 0 0 0 0 0 0 0 0 0 0 0 0 0.16 0"/>
<feBlend mode="normal" in2="BackgroundImageFix" result="effect1_dropShadow_1016_72"/>
<feBlend mode="normal" in="SourceGraphic" in2="effect1_dropShadow_1016_72" result="shape"/>
</filter>
<filter id="filter9_d_1016_72" x="970" y="98" width="298" height="165" filterUnits="userSpaceOnUse" color-interpolation-filters="sRGB">
<feFlood flood-opacity="0" result="BackgroundImageFix"/>
<feColorMatrix in="SourceAlpha" type="matrix" values="0 0 0 0 0 0 0 0 0 0 0 0 0 0 0 0 0 0 127 0" result="hardAlpha"/>
<feOffset dy="4"/>
<feGaussianBlur stdDeviation="8"/>
<feComposite in2="hardAlpha" operator="out"/>
<feColorMatrix type="matrix" values="0 0 0 0 0 0 0 0 0 0 0 0 0 0 0 0 0 0 0.16 0"/>
<feBlend mode="normal" in2="BackgroundImageFix" result="effect1_dropShadow_1016_72"/>
<feBlend mode="normal" in="SourceGraphic" in2="effect1_dropShadow_1016_72" result="shape"/>
</filter>
<linearGradient id="paint0_linear_1016_72" x1="11.5" y1="22" x2="71.5" y2="395" gradientUnits="userSpaceOnUse">
<stop stop-color="#9315CD"/>
<stop offset="1" stop-color="#1B3EF2"/>
</linearGradient>
<clipPath id="clip0_1016_72">
<rect width="1280" height="720" fill="white"/>
</clipPath>
<clipPath id="clip1_1016_72">
<rect width="20.2609" height="20.3339" fill="white" transform="translate(355.694 168.098)"/>
</clipPath>
</defs>
</svg>
